<?xml version="1.0" encoding="iso-8859-1"?>
<!-- Generator: Adobe Illustrator 19.0.0, SVG Export Plug-In . SVG Version: 6.00 Build 0)  -->
<svg version="1.1" id="Capa_1" xmlns="http://www.w3.org/2000/svg" xmlns:xlink="http://www.w3.org/1999/xlink" x="0px" y="0px"
	 viewBox="0 0 512 512" style="enable-background:new 0 0 512 512;" xml:space="preserve">
<g>
	<g>
		<path d="M181.333,202.667c-5.888,0-10.667,4.779-10.667,10.667v53.333l-44.8-59.733c-2.752-3.669-7.552-5.184-11.904-3.712
			c-4.352,1.451-7.296,5.525-7.296,10.112v85.333c0,5.888,4.779,10.667,10.667,10.667S128,304.555,128,298.667v-53.333l44.8,59.733
			c2.048,2.731,5.248,4.267,8.533,4.267c1.131,0,2.261-0.171,3.371-0.555c4.352-1.451,7.296-5.525,7.296-10.112v-85.333
			C192,207.445,187.221,202.667,181.333,202.667z"/>
	</g>
</g>
<g>
	<g>
		<path d="M266.667,288h-32v-64h32c5.888,0,10.667-4.779,10.667-10.667s-4.779-10.667-10.667-10.667H224
			c-5.888,0-10.667,4.779-10.667,10.667v85.333c0,5.888,4.779,10.667,10.667,10.667h42.667c5.888,0,10.667-4.779,10.667-10.667
			S272.555,288,266.667,288z"/>
	</g>
</g>
<g>
	<g>
		<path d="M266.667,245.333H224c-5.888,0-10.667,4.779-10.667,10.667c0,5.888,4.779,10.667,10.667,10.667h42.667
			c5.888,0,10.667-4.779,10.667-10.667C277.333,250.112,272.555,245.333,266.667,245.333z"/>
	</g>
</g>
<g>
	<g>
		<path d="M397.227,202.987c-5.803-1.429-11.499,2.027-12.928,7.765l-12.437,49.792l-9.749-29.248
			c-2.901-8.704-17.323-8.704-20.245,0l-9.749,29.248l-12.437-49.792c-1.429-5.739-7.296-9.216-12.928-7.765
			c-5.717,1.429-9.173,7.211-7.765,12.928l21.333,85.333c1.152,4.587,5.205,7.893,9.941,8.064c5.419,0.213,9.045-2.795,10.539-7.275
			l11.2-33.643l11.2,33.643c1.472,4.373,5.547,7.296,10.133,7.296c0.128,0,0.277,0,0.384-0.021c4.736-0.171,8.789-3.456,9.941-8.064
			l21.333-85.333C406.421,210.197,402.965,204.416,397.227,202.987z"/>
	</g>
</g>
<g>
	<g>
		<path d="M437.333,74.667H74.667C33.493,74.667,0,108.16,0,149.333v213.333c0,41.173,33.493,74.667,74.667,74.667h362.667
			c41.173,0,74.667-33.493,74.667-74.667V149.333C512,108.16,478.507,74.667,437.333,74.667z M490.667,362.667
			c0,29.397-23.915,53.333-53.333,53.333H74.667c-29.419,0-53.333-23.936-53.333-53.333V149.333C21.333,119.936,45.248,96,74.667,96
			h362.667c29.419,0,53.333,23.936,53.333,53.333V362.667z"/>
	</g>
</g>
<g>
</g>
<g>
</g>
<g>
</g>
<g>
</g>
<g>
</g>
<g>
</g>
<g>
</g>
<g>
</g>
<g>
</g>
<g>
</g>
<g>
</g>
<g>
</g>
<g>
</g>
<g>
</g>
<g>
</g>
</svg>
